<?xml version="1.0" encoding="UTF-8" standalone="no"?>
<!DOCTYPE svg PUBLIC "-//W3C//DTD SVG 1.1//EN" "http://www.w3.org/Graphics/SVG/1.1/DTD/svg11.dtd">
<svg width="100%" height="100%" viewBox="0 0 50 50" version="1.1" xmlns="http://www.w3.org/2000/svg" xmlns:xlink="http://www.w3.org/1999/xlink" xml:space="preserve" xmlns:serif="http://www.serif.com/" style="fill-rule:evenodd;clip-rule:evenodd;stroke-linejoin:round;stroke-miterlimit:2;">
    <path d="M25,48.029L4.213,48.029C2.746,48.029 1.557,46.84 1.557,45.373L1.557,4.282C1.557,2.815 2.746,1.626 4.213,1.626L45.304,1.626C46.771,1.626 47.959,2.815 47.959,4.282L47.959,19.751L42.648,19.751L42.648,6.937L6.868,6.937L6.868,42.717L25,42.717L25,48.029Z" style="fill:white;"/>
    <g transform="matrix(1.55747,0,0,1.55747,-3.88451,-6.32426)">
        <path d="M21.823,26.519L16.488,26.519C15.812,26.519 15.262,25.97 15.262,25.294L15.262,22.842C15.262,22.165 15.812,21.616 16.488,21.616L21.823,21.616L21.823,16.281C21.823,15.605 22.372,15.055 23.049,15.055L25.501,15.055C26.177,15.055 26.727,15.605 26.727,16.281L26.727,21.616L32.061,21.616C32.738,21.616 33.287,22.165 33.287,22.842L33.287,25.294C33.287,25.97 32.738,26.519 32.061,26.519L26.727,26.519L26.727,31.854C26.727,32.531 26.177,33.08 25.501,33.08L23.049,33.08C22.372,33.08 21.823,32.531 21.823,31.854L21.823,26.519Z" style="fill:white;"/>
    </g>
</svg>
