<?xml version="1.0" encoding="UTF-8" standalone="no"?>
<!DOCTYPE svg PUBLIC "-//W3C//DTD SVG 1.1//EN" "http://www.w3.org/Graphics/SVG/1.1/DTD/svg11.dtd">
<svg width="100%" height="100%" viewBox="0 0 50 50" version="1.1" xmlns="http://www.w3.org/2000/svg" xmlns:xlink="http://www.w3.org/1999/xlink" xml:space="preserve" xmlns:serif="http://www.serif.com/" style="fill-rule:evenodd;clip-rule:evenodd;stroke-linejoin:round;stroke-miterlimit:2;">
    <g transform="matrix(0.620906,-0.620906,0.954855,0.954855,-4.14029,13.8771)">
        <g transform="matrix(4.47194e-16,-2.02561,2.89501,4.05401e-16,-45.9681,37.0681)">
            <path d="M6.623,17.336L8.046,14.434L9.468,17.336L6.623,17.336Z" style="fill:white;"/>
        </g>
        <g transform="matrix(1,0,0,1.08696,2.00276,9.46133)">
            <rect x="10.566" y="6.354" width="33.84" height="7.942" style="fill:white;"/>
        </g>
    </g>
    <g transform="matrix(6.12323e-17,-1,1,6.12323e-17,-0.0690608,49.5856)">
        <path d="M6.868,16.649L6.868,42.717L25,42.717L25,48.029L4.213,48.029C2.746,48.029 1.557,46.84 1.557,45.373L1.557,11.338L6.868,16.649Z" style="fill:white;"/>
    </g>
</svg>
